<svg viewBox="0 0 510.95 175" xmlns="http://www.w3.org/2000/svg"><g fill="#fff"><path d="m335.16 158.73c-2.75 2.68-31.35 17.59-50.65 12.7-21.42-5.42-34.23-21.32-44.11-50.09-13.93-40.57-20.9-106.86-20.9-106.86l-17 73.76h20.18a1.28 1.28 0 0 1 1.26 1l.54 2.63a.94.94 0 0 1 -.92 1.13l-22.18.07-11.92 51.61a3.38 3.38 0 0 1 -3.28 2.61h-15.71a1.76 1.76 0 0 1 -1.7-2.18l35.9-144.42a.9.9 0 0 1 .88-.69h21.1a.85.85 0 0 1 .84.73c1.15 8.57 12.33 90.34 23.9 119.51 7.38 18.59 15.71 38.59 33.61 45.33 18.81 7.09 44.84-7.7 48.69-10.33 1.97-1.34 1.85 3.11 1.47 3.49z"/><path d="m324.25 104.92c-10 2.73-16.25-.59-16.25-.59 1.41-13.33-4-15.33-4-15.33s-8.18-3.24-9.84 5c-1.71 8.48 10.42 13.35 10.42 13.35-3.4 23.09-15.58 30.84-15.58 30.84s-3.22-1.18-5.46-7.95-.87-18.25-.87-18.25 1.94-13.74 2.43-17.18-1.65-4.22-1.65-4.22c-13.53-2.06-19.38 4.71-19.38 4.71 2.26 29.7 8.93 44.36 14.93 49.27s11 1.22 11 1.22c15.18-16.88 17.18-38.42 17.18-38.42 2.79 1 11.77 1.54 17.46-.85a4.53 4.53 0 0 1 4.16.19l.33-2s-.54-.97-4.88.21zm-19.42-1.72c-7.2-4.76-5.93-9.81-5.93-9.81.58-1.86 3-.64 3-.64 4.25 3.78 2.93 10.45 2.93 10.45z"/><path d="m385.89 118.74c-11.39 21.37-19.81 22.31-19.81 22.31s-3.47.91-3.81-4.9c-.38-6.6 2.05-22.45 3.07-27.67a30.93 30.93 0 0 0 0-10.45c-.84-4.59-9.47-6.57-10.59-6.16s-2.32 2.51-2.32 2.51c-13.93-11.8-24.7-2.3-24.7-2.3-11.6 12.12-14.57 33.73-9.84 46.15 3.37 8.83 13.84 8.57 13.84 8.57 11.88-1.26 14.95-13.06 14.95-13.06.18 6.37 2.22 9.61 2.22 9.61 1.4 3.76 7.15 3.55 7.15 3.55 18.51 1.88 32.06-25 32.06-25 .19-1.8-2.22-3.16-2.22-3.16zm-39.4 8.84c-2.32 7.73-5.93 11.12-10.18 10.62-2.69-.31-7-.82-7.41-7.92-.81-13.75 5.1-35.08 14.1-35.73a6.9 6.9 0 0 1 7.31 4.84c-4.01 10.97-3.82 28.19-3.82 28.19z"/><path d="m427.75 125.42s-15.43 26-22.18 12.72a109.14 109.14 0 0 1 -9.78-28.41c17.48-36.46 20.65-55.36 20.65-55.36s2.69-23.08-7.39-33.25-19.79-4.18-19.79-4.18c-35 27.8-7.15 105.76-7.15 105.76s5 18.24 22.72 23.44 25.11-18.35 25.11-18.35c-.73-3.64-2.19-2.37-2.19-2.37zm-32.08-97.58s3.67-4.12 9.71.73c4.8 3.84 6.42 18.47 4.95 26.83 0 0-1.89 17.33-16.49 47.79 0 0-13.84-46.39 1.83-75.35z"/><path d="m476.4 100.2a16.45 16.45 0 0 1 -7 6.89c-4.73 2.49-8.34 1.63-8.34 1.63-3.36-19.54-16.83-20.72-23.64-20.3-8.44.57-22.84 6-22.27 32.46s21.26 26.12 21.26 26.12c28-.74 24.94-35 24.94-35a29.42 29.42 0 0 0 5.64-.41c6.91-1.63 12.44-8.33 12.44-8.33.29-3.06-3.03-3.06-3.03-3.06zm-29-6.71c8.24 3.5 9.66 14.75 9.66 14.75-12.65-3.29-14.31-8.43-14.31-8.43s-4.15-10.04 4.62-6.32zm-3.89 47.12s-8.43 1.88-11.47-10.85c-4.38-18.44-1.32-31.51 4.46-33.87 0 0 2.18 14.17 21.23 16-.03-.01 2.53 24.76-14.25 28.72z"/><path d="m494.65 115.79c6.57-5.82 16.14-8.77 16.14-8.77.52-2-.62-2.25-.5-2.18a79.53 79.53 0 0 0 -18.21 8.65s-6.08-4.92-8.89-10.49c-4.45-8.75 3.53-10.78 3.53-10.78s6-1.59 7.75 2c.93 1.87-3.69 4.5-3.69 4.5-.78 3 2 2.78 2 2.78s10.4-1.73 9.86-8.14c-.26-3.1-5.47-4.42-9.57-4.93-7.15-.9-27.11 4-21.83 16.93 3.38 8.3 10.84 14.9 10.84 14.9s-9.21 7.41-11.17 12.31c-4 10.08 11.75 13.72 11.75 13.72s21.83 4.39 25.13-9.7c2.21-9.32-13.14-20.8-13.14-20.8zm-6.24 28.38s-6.78 1.66-10.61-4.3c-4.8-7.45 7.26-16.75 7.26-16.75s8.08 6.11 8.39 14.14c.2 5.19-5.04 6.91-5.04 6.91z"/><path d="m56.71 138v8.79a.49.49 0 0 1 -.49.49h-55.74a.49.49 0 0 1 -.48-.49v-121.79a.49.49 0 0 1 .48-.49h16.18a.48.48 0 0 1 .48.49v113.26a.48.48 0 0 0 .49.48h36.87a1.79 1.79 0 0 0 1.19-.44l.65-.55c.18-.19.37-.06.37.25z"/><path d="m63.84 88.07h11.46a.27.27 0 0 1 .27.27v37a22.06 22.06 0 0 0 .88 6.33 16.72 16.72 0 0 0 2.55 5.14 12.42 12.42 0 0 0 4 3.51 10.6 10.6 0 0 0 5.24 1.29 10.34 10.34 0 0 0 5.15-1.29 12.18 12.18 0 0 0 3.93-3.51 16.92 16.92 0 0 0 2.51-5.19 22.41 22.41 0 0 0 .88-6.33v-36.95a.27.27 0 0 1 .26-.27h7a.27.27 0 0 1 .26.27v37a28.12 28.12 0 0 1 -1.27 8.55 18.93 18.93 0 0 1 -4 7 19.25 19.25 0 0 1 -7 4.78 27 27 0 0 1 -10.3 1.77 23.92 23.92 0 0 1 -9.5-1.77 19.78 19.78 0 0 1 -6.9-4.8 20.36 20.36 0 0 1 -4.2-7.08 25.77 25.77 0 0 1 -1.42-8.62v-36.83a.27.27 0 0 1 .2-.27z"/><path d="m118.46 88.07h7.09a.38.38 0 0 1 .31.16l27 36a.4.4 0 0 0 .71-.24v-35.52a.39.39 0 0 1 .39-.4h7.59a.39.39 0 0 1 .33.61 4.43 4.43 0 0 0 -.82 2.47v55.79a.38.38 0 0 1 -.39.39h-4.56a.4.4 0 0 1 -.32-.16l-29.44-39.88a.39.39 0 0 0 -.71.23v39.4a.38.38 0 0 1 -.39.39h-6.82a.38.38 0 0 1 -.39-.39v-58.45a.39.39 0 0 1 .42-.4z"/></g></svg>