<?xml version="1.0" encoding="UTF-8"?>
<svg id="Capa_2" data-name="Capa 2" xmlns="http://www.w3.org/2000/svg" viewBox="0 0 648.13 421.07">
  <defs>
    <style>
      .cls-1 {
        fill: none;
        stroke: #000;
        stroke-miterlimit: 10;
      }
    </style>
  </defs>
  <g id="Capa_1-2" data-name="Capa 1">
    <path class="cls-1" d="M409.34,388.1c-3.64-3.11-7.57-5.45-11.82-5.87-1.25-.13-6.1-7.13-19.64-8.7-3.99-.46-5.91-1.8-9.12-3.24-12.46-5.62-25.21-9.67-36.83-17.45-2.04-1.37-4.33-4.81-6.08-6.67-9.5-.73-17.86-3.16-26.6-6.38-15.79-5.81-13.75-13.79-24.74-18-3.18-1.22-6.7-1.9-9.52-3.86-4.68-3.27-11.77-7.4-14.12-12.61l-6.69-14.82,10.28-5.05-5.29-6.34,4.64-4.42c1.11-1.05.37-4.62-.12-6.52-1.68-6.44-10.86-5.19-8.77-25.19l-8.84-9.23c-5.15-5.38-10.93-10.88-14.66-17.25s-6.56-11.61-13.38-14.47l-2.53-5.89c-13.1,1.38-3.44-12.55-20.97-17.23l-6.9-6.78-3.88,1.73c-4.51-2.11-10.08-11.28-7.01-15.92,1.47-2.22,3.63-1.8,6.97-1.92-.09-3.37-5.06-10.44-11.76-10.17s-4.11-8.23-12.21-10.44c-11.62-3.17-7.07-13.94-11.4-18.45-3.63-3.78-10.99-.57-12.29-3.02l-3.5-6.6c-6.54-6.12-12.1-12.8-16.58-20.86l-1.83,9.65c-2.21-.98-4.21-2.18-5.08-3.24,1.07-3.52,4.4-8.62,2.98-12.09-3.04-7.42-6.23-14.41-10.05-21.16s-6.5-13.21-4.62-22.28l-9.23-2.91c-.99-3.12-4.55-7.54-8.08-6.55-1.12.32-3.34,1.86-4.48,1.98s-2.87-1.87-4.03-2.46l-12.4-6.25.74,6.59c-2.36,8.71,1.03,15.31,4.2,23.11-.71,8.22.35,17.34,8.65,21.54,12.92,6.55,10.64,14.75,16.66,20.7,2.69,2.66,4.09,4.42,5.02,8.63l6.97,1.99,3.8,16.17c1.89,1.88,5.53,4.54,6.94,6.58l6.67,9.65c2.22,3.22,3.83,7.17,6.61,10.21l.37-5.45c7.51,5.59,8.47,13.52,8.48,21.89,1.54,3.56,3.58,7.88,5.53,11.61,1.17,2.25,5.58,4.74,6.42,7.25,1.76,5.25,1.63,10.43,2.3,16.4.28,2.48,5.55,5.43,8,5.17.65-.07,1.7-2.62,2.27-2.3l2.62,1.5c.49.28,1.81,1.35,2.15.99l2.66-2.78.56,5.41c.5,4.78,5.26,8.05,8.48,11.89,2.67,3.18-.28,13.99-5.85,15.51-8.2,2.24-9.01-8.3-11.22-13.79-5.18-4.46-10.94-8.29-16.51-12.36-13.55-9.9-12.92-6.88-21.66-22.03-3.77-6.53,2.32-15.26-6.55-28.85-8.48.36-15.86-10.23-17.93-16.59l-1.83,3.18c-.46.81-2.84.3-3.84.46l-4.45.72c-1.25-3.79-4.76-3.84-7.39-5.47-2.29-1.42-4.99-4.27-8.14-4.67-1.28-.16-1.92-3.67-2.89-4.51l-11.96-10.43c3.25-.69,9.01-1.67,12.02-1.98,1.18-.08,3.54,2.56,4.25,3.52.98,1.32,5.61,2.18,5.09.7-.36-1.02-1.4-2.85-1.79-3.56s1.1-2.45,1.14-3.4l.55-13.39-19.38-18.19c-4.88-4.58-14.19-5.93-15.32-14.5-.62-4.71-4.19-9.32-5.53-13.49-1.45-4.51-2.09-8.02-4.13-11.74s-3.55-7.48-6.19-10.85-3.4-6.58-3.27-10.96l-5.21-3.54L.85,2.74c8.11,1.9,14.99-.72,22.6-1.62,9.11-1.07,18.09-.4,27.64-.54l.56,7.03c25.05,8.08,49.64,16.58,74.36,26.12,3.31,1.28,5.61.96,9.07.95l55.12-.2.48-11.08,38.32.02,2.9,5.38c13.91,11.52,9.13,10.36,24.64,21.47,10.37,7.43,7.61,19.07,12.64,24.45s12.22,10.6,19.21,13.48l8.22,3.38c4.85-1.51,8.63-7.11,9.69-12.52,2.68-13.66,24.83-5.93,26.85-4.5l14.13,10.02c2.53,1.79,3.65,4.65,4.71,7.51l4.14,11.12c1.54,4.14,7.45,7.47,10.24,11.06l8.46,10.88c3.4,4.38,2.54,10.84,4.15,16.11,1.28,3.09,4.39,8.3,7.13,10.37,5.49,4.15,12.47,7.23,19.21,8.52,6.29,1.2,13.19.08,19.97.59,1.52,2.84,1.15,7.54-.12,10.74l-2.96,7.51c-1.46-1.81-2.6-3.56-3.85-3.9-1.49-.4-5.04.2-5.89.78,2.46,5.25,2.54,8.72.22,13.24l-.18,6.95-3.91-.45c-.07,1.82,2.95,4.88,3.45,6.41l.35,46.63c1.55,6.79,11.75,16.12,8.53,18.52l-6.73-10.36c-2.05,3.52.13,6.4,1.66,9.69l4,8.57c3.24,6.94,7.53,12.79,12.28,18.81l9.72,12.31c-2.17,6.97,2.33,9.1,6.29,12.74,3,2.77,4.13,8.53,9.29,9.76,3.08.74,8.65.13,11.17,1.42l6.75,3.44c2.74,2.92,4.52,8.58,9.8,7.85,4.81-.66,9.58-3.73,14.41-5.4,4.45-1.54,10.81-.16,15.12-1.91,6.33-2.57,11.6-6.36,18.97-4.78,3.95.85,7.24-1.24,12.43-2.92-2.8,3.54-7.33,5.27-11.64,5.18l6.02,3.78c3.34-.86,6.96-2.95,9.83-5.38l-.99-5.43,12.36-9.94c1.12-.9,1.66-4.12,1.67-5.58.02-2.6,2.75-5.52,3.3-7.56,1.88-6.94.65-14.2,3.28-21.12,4.22-11.12,22.86-8.37,33.28-12.91,3.95-1.72,6.19-2.39,10.77-2.76,3.52-.28,6.97-.64,10.53-.54l20.78.58.44,12.85-4.31,7.21,5.9,2.26-3.79,4.82-1.43-3.52c-.34-.83-2.86-1.42-3.58-.88-1.69,1.27-4.74,4.82-5.77,6.71l-.62,10.48-7.17,6.26,5,1.14.15,5.84c.16,6.1-4.1,14.86-5.98,20.62-8.66-3.55.07-12.35-4.49-12.33-4.29.02-2.12,5.96-10.23,7.42l-8.1,11.26c-.91,1.27-4.17,2.76-5.6,4.06l-39.25.27-.35,11.34-8.72.63c5.78,4.83,11.31,8.96,16.19,14.19,1.83,1.96.89,5.12,5.82,3.88l-2.33,7.93-28.15.03-8.85,16.79,3.1,3.41c.6.66-1.81,2.84-2.1,3.71l-.73,8.96-12.53-11.11.52-2.89-26.76-18.59c-1.26-.87-2.49-4.67-3.94-4.82-1.59-.17-3.75.27-5.67.75l-3.71-3.63-10.81,5.64c-8.3,4.33-16.35,9.46-26.47,9.5-6.81.03-13.56-2.86-20.2-4.59-3.19-.83-8.62.23-11.45-2.19Z"/>
  </g>
</svg>